<?xml version="1.0" encoding="utf-8"?>
<svg version="1.1" id="Capa_1" xmlns="http://www.w3.org/2000/svg" xmlns:xlink="http://www.w3.org/1999/xlink" x="0px" y="0px" viewBox="0 0 99.2126007 85.0393677">
	<g>
		<g>
			<g>
				<!-- PATH text -->
				<g fill="#FFFFFF">
						<path d="M6.4677501,52.0908852c0-0.9427986,0.467-1.4146996,1.4011002-1.4146996l13.4399986-0.0140991
						c3.3022003,0.009697,4.9525013,1.4190979,4.9525013,4.2300987v0.7355995c0,2.8293991-1.650301,4.2442017-4.9525013,4.2442017
						H9.2835503v4.9524994c0,0.9428024-0.4713936,1.4146957-1.4147,1.4146957c-0.9341002,0-1.4054999-0.4718933-1.4147997-1.4146957
						L6.4677501,52.0908852z M23.4314499,55.6277847v-0.7074013c0-0.9428978-0.9379997-1.4190979-2.8153992-1.4287987
						L9.2835503,53.5056839v3.5510025l11.3188-0.0142021h0.0569C22.5075493,57.0424843,23.4314499,56.5715866,23.4314499,55.6277847
						z"/>
					<path d="M32.7838478,63.4096832l-1.5708981,2.8294983c-1.4146996,0-2.1221008-0.4673996-2.1221008-1.4005966
						l7.7810993-14.1623993h2.8312073l7.7810936,14.1483002c0,0.9428024-0.7083015,1.4146957-2.1230011,1.4146957l-1.5709-2.8294983
						H32.7838478z M42.2204475,60.5793839l-3.9337997-7.0737l-3.9328995,7.0737H42.2204475z"/>
					<path d="M48.9121552,52.0908852c0.0092926-0.9427986,0.480793-1.4146996,1.4147949-1.4146996H67.319252
						c0.9335938,0,1.4045944,0.4719009,1.4151993,1.4146996c-0.0106049,0.9429016-0.4728012,1.4147987-1.387001,1.4147987
						h-7.1165009V64.852684c0,0.9243011-0.4664993,1.3864975-1.4006004,1.3864975
						c-0.9432983,0-1.4146996-0.4718933-1.4146996-1.4146957V53.5056839h-7.0886993
						C49.3840485,53.5056839,48.9121552,53.0337868,48.9121552,52.0908852z"/>
					<path d="M74.3793488,50.6761856c0.9431992,0,1.4147034,0.4719009,1.4147034,1.4146996l-0.0132065,4.9515991
						h14.1483078v-4.9515991c0-0.9427986,0.4708939-1.4146996,1.4137955-1.4146996
						c0.9438019,0,1.415596,0.4719009,1.415596,1.4146996v12.7336006c0,0.9428024-0.4717941,1.4146957-1.415596,1.4146957
						c-0.9429016,0-1.4137955-0.4718933-1.4137955-1.4146957v-4.9524994H75.7940521v4.9384003
						c0,0.9525986-0.4715042,1.4287949-1.4147034,1.4287949c-0.9429016,0-1.4148026-0.4718933-1.4148026-1.4146957V52.0626869
						C72.9645462,51.1383858,73.4364471,50.6761856,74.3793488,50.6761856z"/>
				</g>
			</g>
			<!-- PATH LOGO -->
			<g fill="#FFFFFF">
				<path d="M63.0364494,9.0146847c-3.0699997-3.0699997-7.170002-4.7599998-11.5200005-4.7699995
					C47.14645,4.2546849,43.0464478,5.944685,39.9664497,9.0246849c-0.3899994,0.4000006-0.7900009,0.8599997-1.1800003,1.3299999
					c-1.9900017,2.4700003-3.2000008,5.4300003-3.5,8.5799999l-0.0299988,17.8600006h3.2199974l14.5200005-0.0100021
					c3.2000008-0.2899971,6.2099991-1.5,8.7200012-3.5099983c0.5299988-0.4399986,0.9500008-0.8100014,1.329998-1.1899986
					c3.0599976-3.0600014,4.75-7.1600018,4.7600021-11.5300007C67.8064499,16.1846848,66.1064453,12.0946846,63.0364494,9.0146847z
					 M60.7964478,29.8446846c-0.329998,0.3299999-0.6999969,0.6499996-1.0699997,0.9700012
					c-1.2900009,1.0299988-2.7299995,1.7999992-4.2700005,2.2700005c-0.9099998,0.2799988-1.8099976,0.4599991-2.6999969,0.5399971
					H38.4764481v-3.079998l-0.0499992-11.2700005c0.0900002-0.9099998,0.2799988-1.8099995,0.5600014-2.6700001
					c0.4599991-1.5299997,1.2299995-2.96,2.2700005-4.2699995c0.2599983-0.3299999,0.5699997-0.6700001,0.9599991-1.0700006
					c2.4899979-2.4799995,5.7900009-3.8399997,9.2900009-3.8399997c3.5199966,0,6.8099976,1.3600001,9.2899971,3.8300004
					c2.4799995,2.4799995,3.840004,5.7699995,3.840004,9.3000002
					C64.6364517,24.0646858,63.2764473,27.3646851,60.7964478,29.8446846z"/>
				<path d="M59.0659485,27.9774857c2.0065002-2.0065002,3.1141014-4.6850014,3.1187019-7.5396004
					c0.0023003-2.8523006-1.1052017-5.5307007-3.111702-7.5419006c-2.0042992-2.0042992-4.6827927-3.1071997-7.5396996-3.1094999
					c-2.8522987-0.0022993-5.5284004,1.1029005-7.5419998,3.1164007c-0.2617989,0.2711-0.5236015,0.5606995-0.7737999,0.8619995
					c-1.0172005,1.2813005-1.7122917,2.7131996-2.0783997,4.3027c-0.0023994,0.0300999-0.0093002,0.0648994-0.0093002,0.0648994
					c-0.0904007,0.4425011-0.1435928,1.2419014-0.1575012,1.5060005l-0.0116005,0.1553001l-0.0440979,3.9922009l0.0023994,2.2452984
					l-0.007,0.1737003l-0.0277939,4.4487v0.3985996h3.1742935l8.4478989-0.0000992
					c2.0876999-0.1923008,4.0572014-0.9892998,5.7115021-2.3054008
					C58.6048508,28.4200859,58.8620491,28.1906853,59.0659485,27.9774857z M56.2345505,26.2953854
					c-0.7345009,0.5907993-1.5523949,1.0240993-2.4421997,1.3022003c-0.4634018,0.1435986-0.9847031,0.2479-1.5107002,0.3104
					l-8.2208023-0.0046005l0.0046005-8.1930008l0.007-0.099699c0.0115013-0.0764008,0.0231018-0.1529007,0.039299-0.2709999
					c0.0510025-0.3754005,0.1414108-0.7623997,0.2596016-1.1585007c0.2803001-0.8920994,0.7205009-1.7124004,1.3045006-2.4352999
					c0.1736984-0.2154999,0.3614006-0.4216995,0.549099-0.6093998c1.415699-1.4157,3.2947998-2.2012005,5.2873993-2.1964998
					l0.0510025-0.0047007c0.9846992,0.0024004,1.9417,0.1901007,2.8499985,0.5608006
					c0.9035988,0.3753996,1.7145996,0.9175997,2.4281998,1.6311998c1.4180984,1.4179993,2.1943016,3.3017006,2.1966095,5.3106003
					c-0.0023079,2.0088997-0.7762108,3.8950005-2.1803093,5.299099
					C56.6608505,25.929285,56.4523506,26.1099854,56.2345505,26.2953854z"/>
			</g>
		</g>
		<!-- travel made easy -->
		<g fill="#FFFFFF">
			<path d="M14.032217,73.0912857v0.4433594h-0.8774414v2.9091797
				c0,0.1728516,0.0234375,0.3085938,0.0708008,0.40625s0.1660156,0.1513672,0.3554688,0.1630859
				c0.1503906,0,0.3007812-0.0087891,0.4511719-0.0253906v0.4433594c-0.078125,0-0.1557617,0.0019531-0.2338867,0.0078125
				s-0.15625,0.0087891-0.2338867,0.0087891c-0.3515625,0-0.5966797-0.0683594-0.7358398-0.2050781
				c-0.1396484-0.1367188-0.206543-0.3886719-0.2006836-0.7568359v-2.9511719h-0.7524414v-0.4433594h0.7524414v-1.2958984h0.5268555
				v1.2958984H14.032217z"/>
			<path d="M16.1977444,73.0912857v1.0117188h0.0170898
				c0.1337891-0.3505859,0.3413086-0.6210938,0.6225586-0.8105469c0.2817383-0.1894531,0.6171875-0.2763672,1.0078125-0.2597656
				v0.5273438c-0.2397461-0.0117188-0.4575195,0.0205078-0.6523438,0.0957031
				c-0.1953125,0.0751953-0.3637695,0.1826172-0.5058594,0.3222656s-0.2519531,0.3046875-0.3300781,0.4970703
				s-0.1171875,0.4033203-0.1171875,0.6318359v2.2988281h-0.5268555v-4.3144531H16.1977444z"/>
			<path d="M19.3745022,73.760231c0.0888672-0.1835938,0.2104492-0.3339844,0.3637695-0.4511719
				s0.3330078-0.203125,0.5390625-0.2587891s0.4350586-0.0839844,0.6855469-0.0839844
				c0.1894531,0,0.3789062,0.0185547,0.5688477,0.0546875c0.1889648,0.0361328,0.359375,0.1044922,0.5097656,0.2041016
				c0.1503906,0.1005859,0.2729492,0.2412109,0.3676758,0.4228516c0.0947266,0.1806641,0.1420898,0.4160156,0.1420898,0.7060547
				v2.2910156c0,0.2119141,0.1035156,0.3173828,0.3095703,0.3173828c0.0610352,0,0.1171875-0.0107422,0.1669922-0.0332031v0.4433594
				c-0.0610352,0.0107422-0.1157227,0.0195312-0.1625977,0.0244141c-0.0478516,0.0058594-0.1074219,0.0087891-0.1801758,0.0087891
				c-0.1337891,0-0.2407227-0.0175781-0.3217773-0.0546875c-0.0805664-0.0361328-0.1435547-0.0878906-0.1879883-0.1542969
				c-0.0449219-0.0673828-0.0737305-0.1464844-0.0878906-0.2382812c-0.0136719-0.0917969-0.0209961-0.1933594-0.0209961-0.3056641
				h-0.0166016c-0.0947266,0.1396484-0.190918,0.2636719-0.2885742,0.3720703
				c-0.097168,0.109375-0.2060547,0.2001953-0.3256836,0.2724609c-0.1201172,0.0722656-0.2568359,0.1279297-0.409668,0.1669922
				c-0.1533203,0.0390625-0.3359375,0.0585938-0.5478516,0.0585938c-0.2006836,0-0.3886719-0.0234375-0.5644531-0.0712891
				c-0.175293-0.046875-0.3286133-0.1220703-0.4594727-0.2255859c-0.1313477-0.1035156-0.234375-0.234375-0.3095703-0.3925781
				c-0.0751953-0.1591797-0.112793-0.3476562-0.112793-0.5644531c0-0.3017578,0.0668945-0.5371094,0.2006836-0.7070312
				s0.3105469-0.2988281,0.5307617-0.3886719c0.2202148-0.0888672,0.4682617-0.1513672,0.7441406-0.1875
				c0.2758789-0.0371094,0.5561523-0.0712891,0.840332-0.1044922c0.1113281-0.0117188,0.2089844-0.0253906,0.2924805-0.0419922
				s0.1533203-0.0458984,0.2089844-0.0878906s0.0991211-0.0986328,0.1298828-0.171875
				c0.0302734-0.0722656,0.0458984-0.1669922,0.0458984-0.2841797c0-0.1777344-0.0292969-0.3242188-0.0878906-0.4384766
				s-0.1391602-0.2050781-0.2426758-0.2714844c-0.1030273-0.0673828-0.2226562-0.1132812-0.359375-0.1386719
				c-0.1367188-0.0244141-0.2827148-0.0371094-0.4389648-0.0371094c-0.3344727,0-0.6074219,0.0791016-0.8193359,0.2382812
				c-0.2119141,0.1582031-0.3232422,0.4140625-0.3344727,0.7646484h-0.5263672
				C19.2324123,74.1615982,19.2851467,73.9448013,19.3745022,73.760231z M22.0082912,75.048317
				c-0.0336914,0.0615234-0.0976562,0.1054688-0.1923828,0.1337891c-0.0952148,0.0273438-0.1787109,0.046875-0.2509766,0.0585938
				c-0.2231445,0.0390625-0.453125,0.0732422-0.6899414,0.1044922c-0.2368164,0.0302734-0.4526367,0.0761719-0.6479492,0.1376953
				c-0.1948242,0.0615234-0.3549805,0.1494141-0.4804688,0.2636719s-0.1879883,0.2773438-0.1879883,0.4882812
				c0,0.1337891,0.0263672,0.2529297,0.0791016,0.3554688c0.0532227,0.1035156,0.1240234,0.1923828,0.2133789,0.2675781
				c0.0888672,0.0751953,0.1923828,0.1328125,0.309082,0.171875c0.1171875,0.0390625,0.2373047,0.0585938,0.3598633,0.0585938
				c0.2006836,0,0.3925781-0.03125,0.5766602-0.0927734c0.184082-0.0605469,0.3442383-0.1503906,0.480957-0.2666016
				c0.1362305-0.1171875,0.2451172-0.2597656,0.3256836-0.4267578c0.0810547-0.1669922,0.121582-0.3564453,0.121582-0.5683594
				V75.048317H22.0082912z"/>
			<path d="M24.6249905,73.0912857l1.3544922,3.7880859h0.0166016l1.3378906-3.7880859h0.5429688
				l-1.6132812,4.3144531h-0.5600586l-1.6640625-4.3144531H24.6249905z"/>
			<path d="M29.704092,75.9799576c0.0527344,0.2041016,0.1376953,0.3867188,0.2548828,0.5478516
				c0.1166992,0.1621094,0.2646484,0.2958984,0.4428711,0.4013672s0.3930664,0.1591797,0.644043,0.1591797
				c0.3842773,0,0.6855469-0.1005859,0.902832-0.3017578c0.2172871-0.2001953,0.3676777-0.4677734,0.4516621-0.8017578h0.5263672
				c-0.1113281,0.4902344-0.3164062,0.8691406-0.6142578,1.1367188c-0.2983398,0.2675781-0.720705,0.4013672-1.2666035,0.4013672
				c-0.340332,0-0.6342773-0.0605469-0.8823242-0.1796875c-0.2480469-0.1201172-0.4501953-0.2841797-0.605957-0.4931641
				c-0.15625-0.2089844-0.2719727-0.4521484-0.347168-0.7275391c-0.0751953-0.2763672-0.112793-0.5673828-0.112793-0.8740234
				c0-0.2841797,0.0375977-0.5625,0.112793-0.8359375s0.190918-0.5166016,0.347168-0.7314453
				c0.1557617-0.2148438,0.3579102-0.3876953,0.605957-0.5185547s0.5419922-0.1962891,0.8823242-0.1962891
				c0.3452148,0,0.640625,0.0693359,0.8862305,0.2089844c0.2451191,0.1396484,0.4443378,0.3222656,0.5976582,0.5478516
				s0.2631836,0.484375,0.3300781,0.7773438s0.0947266,0.5898438,0.0839844,0.890625h-3.3193378
				C29.6245022,75.5805435,29.6508694,75.7768326,29.704092,75.9799576z M32.3124924,74.3705826
				c-0.0644531-0.1835938-0.1547852-0.3466797-0.2719727-0.4892578c-0.1167011-0.1416016-0.2592793-0.2558594-0.4262714-0.3427734
				c-0.1669922-0.0859375-0.3569336-0.1289062-0.5683594-0.1289062c-0.2172852,0-0.409668,0.0429688-0.5771484,0.1289062
				c-0.1669922,0.0869141-0.309082,0.2011719-0.4262695,0.3427734c-0.1171875,0.1425781-0.2104492,0.3066406-0.2802734,0.4941406
				c-0.0693359,0.1865234-0.1157227,0.3769531-0.1376953,0.5722656h2.7924824
				C32.4111252,74.7475357,32.3764572,74.5551529,32.3124924,74.3705826z"/>
			<path d="M35.1088791,71.4360123v5.9697266h-0.5268555v-5.9697266H35.1088791z"/>
			<path d="M40.7690353,73.0912857v0.7275391h0.0253906
				c0.1391602-0.2675781,0.3217773-0.4765625,0.5473633-0.6269531c0.2260742-0.1503906,0.5141602-0.2255859,0.8657227-0.2255859
				c0.2841797,0,0.5419922,0.0693359,0.7729492,0.2089844c0.2314453,0.1396484,0.3862305,0.3515625,0.4643555,0.6357422
				c0.1279297-0.2841797,0.3173828-0.4960938,0.5683594-0.6357422s0.5185547-0.2089844,0.8027344-0.2089844
				c0.953125,0,1.4296875,0.5048828,1.4296875,1.5136719v2.9257812h-0.5268555v-2.9013672
				c0-0.3564453-0.0751953-0.6279297-0.2255859-0.8144531c-0.1508789-0.1875-0.4155273-0.2802734-0.7944336-0.2802734
				c-0.2285156,0-0.4179688,0.0429688-0.5683594,0.1289062c-0.1508789,0.0869141-0.2705078,0.2021484-0.3598633,0.3476562
				c-0.0888672,0.1445312-0.1518555,0.3105469-0.1879883,0.4970703s-0.0541992,0.3808594-0.0541992,0.5810547v2.4414062h-0.5268555
				v-2.9257812c0-0.1455078-0.0151367-0.2832031-0.0458984-0.4140625s-0.0810547-0.2451172-0.1503906-0.3427734
				c-0.0698242-0.0976562-0.1630859-0.1748047-0.2802734-0.2304688s-0.2592773-0.0830078-0.4262695-0.0830078
				c-0.2231445,0-0.4169922,0.0400391-0.5810547,0.1210938c-0.1645508,0.0810547-0.2983398,0.1923828-0.4013672,0.3339844
				c-0.1030273,0.1425781-0.1796875,0.3095703-0.2299805,0.5019531s-0.0751953,0.4023438-0.0751953,0.6308594v2.4082031h-0.5268555
				v-4.3144531H40.7690353z"/>
			<path d="M48.2768478,73.760231c0.0888672-0.1835938,0.2104492-0.3339844,0.3637695-0.4511719
				s0.3330078-0.203125,0.5390625-0.2587891s0.4350586-0.0839844,0.6855469-0.0839844
				c0.1894531,0,0.3789062,0.0185547,0.5688477,0.0546875c0.1889648,0.0361328,0.359375,0.1044922,0.5097656,0.2041016
				c0.1503906,0.1005859,0.2724609,0.2412109,0.3671875,0.4228516c0.0947266,0.1806641,0.1425781,0.4160156,0.1425781,0.7060547
				v2.2910156c0,0.2119141,0.1035156,0.3173828,0.3095703,0.3173828c0.0605469,0,0.1171875-0.0107422,0.1669922-0.0332031v0.4433594
				c-0.0615234,0.0107422-0.1162109,0.0195312-0.1630859,0.0244141c-0.0478516,0.0058594-0.1074219,0.0087891-0.1796875,0.0087891
				c-0.1337891,0-0.2412109-0.0175781-0.3222656-0.0546875c-0.0800781-0.0361328-0.1435547-0.0878906-0.1875-0.1542969
				c-0.0449219-0.0673828-0.0742188-0.1464844-0.0878906-0.2382812s-0.0214844-0.1933594-0.0214844-0.3056641h-0.0161133
				c-0.0947266,0.1396484-0.190918,0.2636719-0.2885742,0.3720703c-0.097168,0.109375-0.2060547,0.2001953-0.3256836,0.2724609
				c-0.1201172,0.0722656-0.2568359,0.1279297-0.409668,0.1669922c-0.1533203,0.0390625-0.3359375,0.0585938-0.5478516,0.0585938
				c-0.2006836,0-0.3886719-0.0234375-0.5644531-0.0712891c-0.175293-0.046875-0.3286133-0.1220703-0.4594727-0.2255859
				c-0.1313477-0.1035156-0.234375-0.234375-0.3095703-0.3925781c-0.0751953-0.1591797-0.112793-0.3476562-0.112793-0.5644531
				c0-0.3017578,0.0668945-0.5371094,0.2006836-0.7070312s0.3105469-0.2988281,0.5307617-0.3886719
				c0.2202148-0.0888672,0.4682617-0.1513672,0.7441406-0.1875c0.2758789-0.0371094,0.5561523-0.0712891,0.840332-0.1044922
				c0.1113281-0.0117188,0.2089844-0.0253906,0.2924805-0.0419922s0.1533203-0.0458984,0.2089844-0.0878906
				s0.0991211-0.0986328,0.1298828-0.171875c0.0302734-0.0722656,0.0458984-0.1669922,0.0458984-0.2841797
				c0-0.1777344-0.0292969-0.3242188-0.0878906-0.4384766s-0.1391602-0.2050781-0.2426758-0.2714844
				c-0.1030273-0.0673828-0.2226562-0.1132812-0.359375-0.1386719c-0.1367188-0.0244141-0.2827148-0.0371094-0.4389648-0.0371094
				c-0.3344727,0-0.6074219,0.0791016-0.8193359,0.2382812c-0.2119141,0.1582031-0.3232422,0.4140625-0.3344727,0.7646484
				h-0.5263672C48.134758,74.1615982,48.1874924,73.9448013,48.2768478,73.760231z M50.9106369,75.048317
				c-0.0336914,0.0615234-0.0976562,0.1054688-0.1923828,0.1337891c-0.0952148,0.0273438-0.1787109,0.046875-0.2509766,0.0585938
				c-0.2231445,0.0390625-0.453125,0.0732422-0.6899414,0.1044922c-0.2368164,0.0302734-0.4526367,0.0761719-0.6479492,0.1376953
				c-0.1948242,0.0615234-0.3549805,0.1494141-0.4804688,0.2636719s-0.1879883,0.2773438-0.1879883,0.4882812
				c0,0.1337891,0.0263672,0.2529297,0.0791016,0.3554688c0.0532227,0.1035156,0.1240234,0.1923828,0.2133789,0.2675781
				c0.0888672,0.0751953,0.1923828,0.1328125,0.309082,0.171875c0.1171875,0.0390625,0.2373047,0.0585938,0.3598633,0.0585938
				c0.2006836,0,0.3925781-0.03125,0.5766602-0.0927734c0.184082-0.0605469,0.3442383-0.1503906,0.480957-0.2666016
				c0.1362305-0.1171875,0.2451172-0.2597656,0.3256836-0.4267578c0.0810547-0.1669922,0.121582-0.3564453,0.121582-0.5683594
				V75.048317H50.9106369z"/>
			<path d="M56.7377853,77.4057388v-0.8193359h-0.0166016
				c-0.0566406,0.1396484-0.1386719,0.2675781-0.2470703,0.3847656s-0.2324219,0.2158203-0.3720703,0.296875
				s-0.2880859,0.1435547-0.4472656,0.1875c-0.1591797,0.0449219-0.3164062,0.0673828-0.4726562,0.0673828
				c-0.3291016,0-0.6142578-0.0605469-0.8564453-0.1796875c-0.2431641-0.1201172-0.4443359-0.2841797-0.6064453-0.4931641
				s-0.28125-0.4521484-0.359375-0.7275391c-0.078125-0.2763672-0.1171875-0.5673828-0.1171875-0.8740234
				s0.0390625-0.5976562,0.1171875-0.8730469c0.078125-0.2763672,0.1972656-0.5185547,0.359375-0.7275391
				s0.3632812-0.375,0.6064453-0.4980469c0.2421875-0.1220703,0.5273438-0.1835938,0.8564453-0.1835938
				c0.1621094,0,0.3193359,0.0195312,0.4726562,0.0585938s0.296875,0.0986328,0.4306641,0.1796875
				s0.2519531,0.1796875,0.3554688,0.296875c0.1025391,0.1171875,0.1826172,0.2539062,0.2382812,0.4091797h0.0166016v-2.4746094
				h0.5263672v5.9697266H56.7377853z M53.8491135,75.9135513c0.0527344,0.2197266,0.1367188,0.4169922,0.2509766,0.5888672
				c0.1142578,0.1728516,0.2597656,0.3134766,0.4384766,0.4228516c0.1787109,0.1083984,0.3925781,0.1630859,0.6435547,0.1630859
				c0.2792969,0,0.5146484-0.0546875,0.7070312-0.1630859c0.1923828-0.109375,0.3476562-0.25,0.4677734-0.4228516
				c0.1201172-0.171875,0.2060547-0.3691406,0.2597656-0.5888672c0.0527344-0.2207031,0.0791016-0.4414062,0.0791016-0.6650391
				c0-0.2226562-0.0263672-0.4443359-0.0791016-0.6640625c-0.0537109-0.2207031-0.1396484-0.4169922-0.2597656-0.5898438
				s-0.2753906-0.3134766-0.4677734-0.421875c-0.1923828-0.109375-0.4277344-0.1630859-0.7070312-0.1630859
				c-0.2509766,0-0.4648438,0.0537109-0.6435547,0.1630859c-0.1787109,0.1083984-0.3242188,0.2490234-0.4384766,0.421875
				s-0.1982422,0.3691406-0.2509766,0.5898438c-0.0537109,0.2197266-0.0800781,0.4414062-0.0800781,0.6640625
				C53.7690353,75.4721451,53.7954025,75.6928482,53.8491135,75.9135513z"/>
			<path d="M59.5346603,75.9799576c0.0527344,0.2041016,0.1376953,0.3867188,0.2548828,0.5478516
				c0.1162109,0.1621094,0.2646484,0.2958984,0.4423828,0.4013672c0.1787109,0.1054688,0.3935547,0.1591797,0.6445312,0.1591797
				c0.3837891,0,0.6855469-0.1005859,0.9023438-0.3017578c0.2177734-0.2001953,0.3681641-0.4677734,0.4521484-0.8017578h0.5263672
				c-0.1113281,0.4902344-0.3164062,0.8691406-0.6142578,1.1367188c-0.2988281,0.2675781-0.7207031,0.4013672-1.2666016,0.4013672
				c-0.3408203,0-0.6347656-0.0605469-0.8828125-0.1796875c-0.2480469-0.1201172-0.4501953-0.2841797-0.6054688-0.4931641
				c-0.15625-0.2089844-0.2724609-0.4521484-0.3476562-0.7275391c-0.0751953-0.2763672-0.1123047-0.5673828-0.1123047-0.8740234
				c0-0.2841797,0.0371094-0.5625,0.1123047-0.8359375s0.1914062-0.5166016,0.3476562-0.7314453
				c0.1552734-0.2148438,0.3574219-0.3876953,0.6054688-0.5185547s0.5419922-0.1962891,0.8828125-0.1962891
				c0.3447266,0,0.640625,0.0693359,0.8857422,0.2089844s0.4443359,0.3222656,0.5976562,0.5478516
				s0.2636719,0.484375,0.3300781,0.7773438c0.0673828,0.2929688,0.0947266,0.5898438,0.0839844,0.890625h-3.3193359
				C59.4545822,75.5805435,59.4809494,75.7768326,59.5346603,75.9799576z M62.1430588,74.3705826
				c-0.0644531-0.1835938-0.1552734-0.3466797-0.2724609-0.4892578c-0.1162109-0.1416016-0.2587891-0.2558594-0.4257812-0.3427734
				c-0.1669922-0.0859375-0.3574219-0.1289062-0.5683594-0.1289062c-0.2177734,0-0.4101562,0.0429688-0.5771484,0.1289062
				c-0.1669922,0.0869141-0.3095703,0.2011719-0.4267578,0.3427734c-0.1171875,0.1425781-0.2099609,0.3066406-0.2802734,0.4941406
				c-0.0693359,0.1865234-0.1152344,0.3769531-0.1376953,0.5722656h2.7929688
				C62.2416916,74.7475357,62.2065353,74.5551529,62.1430588,74.3705826z"/>
			<path d="M68.0366135,75.9799576c0.0527344,0.2041016,0.1376953,0.3867188,0.2548828,0.5478516
				c0.1171875,0.1621094,0.2646484,0.2958984,0.4433594,0.4013672c0.1777344,0.1054688,0.3925781,0.1591797,0.6435547,0.1591797
				c0.3847656,0,0.6855469-0.1005859,0.9033203-0.3017578c0.2167969-0.2001953,0.3671875-0.4677734,0.4511719-0.8017578h0.5263672
				c-0.1113281,0.4902344-0.3164062,0.8691406-0.6142578,1.1367188s-0.7207031,0.4013672-1.2666016,0.4013672
				c-0.3398438,0-0.6337891-0.0605469-0.8818359-0.1796875c-0.2480469-0.1201172-0.4501953-0.2841797-0.6064453-0.4931641
				s-0.2714844-0.4521484-0.3466797-0.7275391c-0.0751953-0.2763672-0.1132812-0.5673828-0.1132812-0.8740234
				c0-0.2841797,0.0380859-0.5625,0.1132812-0.8359375s0.1904297-0.5166016,0.3466797-0.7314453
				s0.3583984-0.3876953,0.6064453-0.5185547s0.5419922-0.1962891,0.8818359-0.1962891
				c0.3457031,0,0.640625,0.0693359,0.8867188,0.2089844c0.2451172,0.1396484,0.4443359,0.3222656,0.5976562,0.5478516
				s0.2626953,0.484375,0.3300781,0.7773438c0.0664062,0.2929688,0.0947266,0.5898438,0.0839844,0.890625h-3.3193359
				C67.9575119,75.5805435,67.9838791,75.7768326,68.0366135,75.9799576z M70.6450119,74.3705826
				c-0.0644531-0.1835938-0.1542969-0.3466797-0.2714844-0.4892578c-0.1171875-0.1416016-0.2597656-0.2558594-0.4267578-0.3427734
				c-0.1669922-0.0859375-0.3564453-0.1289062-0.5683594-0.1289062c-0.2167969,0-0.4091797,0.0429688-0.5771484,0.1289062
				c-0.1669922,0.0869141-0.3085938,0.2011719-0.4257812,0.3427734c-0.1171875,0.1425781-0.2109375,0.3066406-0.2802734,0.4941406
				c-0.0693359,0.1865234-0.1162109,0.3769531-0.1376953,0.5722656h2.7919922
				C70.7436447,74.7475357,70.709465,74.5551529,70.6450119,74.3705826z"/>
			<path d="M73.0151291,73.760231c0.0888672-0.1835938,0.2109375-0.3339844,0.3642578-0.4511719
				s0.3330078-0.203125,0.5390625-0.2587891s0.4345703-0.0839844,0.6855469-0.0839844
				c0.1894531,0,0.3789062,0.0185547,0.5683594,0.0546875s0.359375,0.1044922,0.5097656,0.2041016
				c0.1503906,0.1005859,0.2734375,0.2412109,0.3681641,0.4228516c0.0947266,0.1806641,0.1416016,0.4160156,0.1416016,0.7060547
				v2.2910156c0,0.2119141,0.1035156,0.3173828,0.3095703,0.3173828c0.0615234,0,0.1171875-0.0107422,0.1669922-0.0332031v0.4433594
				c-0.0605469,0.0107422-0.1152344,0.0195312-0.1621094,0.0244141c-0.0478516,0.0058594-0.1074219,0.0087891-0.1806641,0.0087891
				c-0.1337891,0-0.2402344-0.0175781-0.3212891-0.0546875c-0.0810547-0.0361328-0.1435547-0.0878906-0.1884766-0.1542969
				c-0.0449219-0.0673828-0.0732422-0.1464844-0.0878906-0.2382812c-0.0136719-0.0917969-0.0205078-0.1933594-0.0205078-0.3056641
				h-0.0166016c-0.0947266,0.1396484-0.1914062,0.2636719-0.2890625,0.3720703
				c-0.0966797,0.109375-0.2060547,0.2001953-0.3251953,0.2724609c-0.1201172,0.0722656-0.2568359,0.1279297-0.4101562,0.1669922
				s-0.3359375,0.0585938-0.5478516,0.0585938c-0.2001953,0-0.3886719-0.0234375-0.5644531-0.0712891
				c-0.1748047-0.046875-0.328125-0.1220703-0.4589844-0.2255859c-0.1318359-0.1035156-0.234375-0.234375-0.3095703-0.3925781
				c-0.0751953-0.1591797-0.1132812-0.3476562-0.1132812-0.5644531c0-0.3017578,0.0673828-0.5371094,0.2011719-0.7070312
				s0.3105469-0.2988281,0.5302734-0.3886719c0.2207031-0.0888672,0.46875-0.1513672,0.7441406-0.1875
				c0.2763672-0.0371094,0.5566406-0.0712891,0.8408203-0.1044922c0.1113281-0.0117188,0.2089844-0.0253906,0.2919922-0.0419922
				c0.0839844-0.0166016,0.1533203-0.0458984,0.2089844-0.0878906s0.0996094-0.0986328,0.1298828-0.171875
				c0.0302734-0.0722656,0.0458984-0.1669922,0.0458984-0.2841797c0-0.1777344-0.0292969-0.3242188-0.0878906-0.4384766
				s-0.1386719-0.2050781-0.2421875-0.2714844c-0.1035156-0.0673828-0.2226562-0.1132812-0.359375-0.1386719
				c-0.1367188-0.0244141-0.2832031-0.0371094-0.4394531-0.0371094c-0.3339844,0-0.6074219,0.0791016-0.8193359,0.2382812
				c-0.2119141,0.1582031-0.3232422,0.4140625-0.3339844,0.7646484H72.856926
				C72.8735275,74.1615982,72.9262619,73.9448013,73.0151291,73.760231z M75.6489182,75.048317
				c-0.0332031,0.0615234-0.0976562,0.1054688-0.1923828,0.1337891c-0.0947266,0.0273438-0.1787109,0.046875-0.2509766,0.0585938
				c-0.2226562,0.0390625-0.453125,0.0732422-0.6894531,0.1044922c-0.2373047,0.0302734-0.453125,0.0761719-0.6484375,0.1376953
				c-0.1943359,0.0615234-0.3544922,0.1494141-0.4804688,0.2636719c-0.125,0.1142578-0.1875,0.2773438-0.1875,0.4882812
				c0,0.1337891,0.0263672,0.2529297,0.0791016,0.3554688c0.0527344,0.1035156,0.1240234,0.1923828,0.2128906,0.2675781
				s0.1923828,0.1328125,0.3095703,0.171875s0.2373047,0.0585938,0.359375,0.0585938
				c0.2011719,0,0.3925781-0.03125,0.5771484-0.0927734c0.1835938-0.0605469,0.34375-0.1503906,0.4804688-0.2666016
				c0.1367188-0.1171875,0.2451172-0.2597656,0.3261719-0.4267578s0.1210938-0.3564453,0.1210938-0.5683594V75.048317H75.6489182z"
				/>
			<path d="M80.6489182,73.932106c-0.0615234-0.1201172-0.1435547-0.21875-0.2470703-0.296875
				s-0.2216797-0.1347656-0.3554688-0.171875c-0.1337891-0.0361328-0.2753906-0.0537109-0.4257812-0.0537109
				c-0.1171875,0-0.2363281,0.0126953-0.3554688,0.0371094c-0.1201172,0.0253906-0.2304688,0.0673828-0.3300781,0.1259766
				c-0.1005859,0.0585938-0.1816406,0.1347656-0.2431641,0.2294922S78.60009,74.0141373,78.60009,74.1537857
				c0,0.1171875,0.0292969,0.2158203,0.0878906,0.296875c0.0585938,0.0800781,0.1328125,0.1484375,0.2216797,0.2041016
				s0.1865234,0.1025391,0.2929688,0.1386719c0.1054688,0.0361328,0.203125,0.0654297,0.2919922,0.0878906l0.7021484,0.1582031
				c0.1503906,0.0224609,0.2998047,0.0625,0.4472656,0.1210938s0.2792969,0.1357422,0.3935547,0.2304688
				s0.2070312,0.2119141,0.2802734,0.3505859c0.0722656,0.1396484,0.1083984,0.3037109,0.1083984,0.4931641
				c0,0.234375-0.0537109,0.4335938-0.1591797,0.5986328c-0.1054688,0.1640625-0.2412109,0.2978516-0.4052734,0.4003906
				c-0.1640625,0.1035156-0.3496094,0.1777344-0.5556641,0.2216797c-0.2070312,0.0449219-0.4101562,0.0673828-0.6103516,0.0673828
				c-0.5078125,0-0.9189453-0.1201172-1.2333984-0.359375c-0.3154297-0.2402344-0.4951172-0.6240234-0.5390625-1.1542969h0.5263672
				c0.0224609,0.3574219,0.1513672,0.6259766,0.3886719,0.8066406c0.2373047,0.1816406,0.53125,0.2724609,0.8818359,0.2724609
				c0.1289062,0,0.2607422-0.0146484,0.3974609-0.0419922c0.1367188-0.0283203,0.2636719-0.0751953,0.3808594-0.1425781
				c0.1162109-0.0664062,0.2128906-0.1513672,0.2880859-0.2548828c0.0751953-0.1025391,0.1123047-0.2294922,0.1123047-0.3798828
				c0-0.1289062-0.0263672-0.2353516-0.0791016-0.3222656c-0.0527344-0.0859375-0.1240234-0.1591797-0.2128906-0.2177734
				c-0.0898438-0.0576172-0.1914062-0.1064453-0.3056641-0.1455078s-0.2294922-0.0722656-0.3466797-0.1005859l-0.6767578-0.1503906
				c-0.1728516-0.0449219-0.3320312-0.0966797-0.4765625-0.1552734c-0.1455078-0.0585938-0.2724609-0.1308594-0.3808594-0.2167969
				c-0.1083984-0.0869141-0.1933594-0.1923828-0.2548828-0.3173828c-0.0615234-0.1259766-0.0917969-0.2802734-0.0917969-0.4648438
				c0-0.2167969,0.0488281-0.4033203,0.1464844-0.5595703c0.0966797-0.15625,0.2236328-0.28125,0.3798828-0.3759766
				s0.3300781-0.1650391,0.5224609-0.2099609c0.1923828-0.0439453,0.3837891-0.0664062,0.5732422-0.0664062
				c0.2167969,0,0.4189453,0.0283203,0.6054688,0.0839844s0.3515625,0.1416016,0.4931641,0.2587891
				c0.1425781,0.1171875,0.2558594,0.2617188,0.3388672,0.4345703c0.0839844,0.1728516,0.1308594,0.3759766,0.1425781,0.6103516
				h-0.5273438C80.7436447,74.1928482,80.709465,74.0522232,80.6489182,73.932106z"/>
			<path d="M83.1821213,73.0912857l1.4208984,3.6787109l1.3300781-3.6787109h0.5263672l-1.8730469,4.9667969
				c-0.078125,0.1835938-0.1503906,0.3359375-0.2167969,0.4550781c-0.0673828,0.1201172-0.1416016,0.2148438-0.2216797,0.2841797
				c-0.0810547,0.0703125-0.1757812,0.1201172-0.2841797,0.1513672c-0.109375,0.0302734-0.2470703,0.0458984-0.4140625,0.0458984
				c-0.1064453-0.0058594-0.1884766-0.0097656-0.2470703-0.0126953s-0.109375-0.0126953-0.1542969-0.0292969v-0.4433594
				c0.0615234,0.0107422,0.1210938,0.0205078,0.1796875,0.0292969s0.1181641,0.0126953,0.1796875,0.0126953
				c0.1171875,0,0.2128906-0.0166016,0.2880859-0.0498047c0.0761719-0.0341797,0.1416016-0.0800781,0.1972656-0.1386719
				s0.1025391-0.1289062,0.1416016-0.2128906s0.0810547-0.1757812,0.1259766-0.2763672l0.1835938-0.484375l-1.7226562-4.2978516
				H83.1821213z"/>
		</g>
	</g>
</svg>
